<?xml version="1.0" encoding="utf-8"?>
<!-- Generator: Adobe Illustrator 23.0.3, SVG Export Plug-In . SVG Version: 6.00 Build 0)  -->
<svg version="1.1" id="Layer_1" xmlns="http://www.w3.org/2000/svg" xmlns:xlink="http://www.w3.org/1999/xlink" x="0px" y="0px"
	 viewBox="0 0 425.2 425.2" style="enable-background:new 0 0 425.2 425.2;" xml:space="preserve">
<style type="text/css">
	.st0{display:none;fill:#010202;}
	.st1{fill:#010202;}
</style>
<rect x="0" y="0" class="st0" width="425.2" height="425.2"/>
<g>
	<g>
		<path class="st1" d="M128.8,229.7c-4,1.2-7.5,1.8-10.5,1.8c-4.7,0-8.5-1.7-11.6-5.1s-4.6-7.6-4.6-12.8c0-5.5,1.5-9.8,4.6-12.8
			c3-3.1,7.3-4.6,12.7-4.6c2.7,0,5.7,0.4,9,1.1v5.1c-3.5-1-6.4-1.5-8.6-1.5c-3.2,0-5.8,1.2-7.7,3.5c-1.9,2.3-2.9,5.5-2.9,9.4
			c0,3.8,1,6.8,3,9.2c2,2.3,4.6,3.5,7.8,3.5c2.9,0,5.8-0.7,8.8-2.1V229.7z"/>
		<path class="st1" d="M138.1,230.8v-49h6.3v49H138.1z"/>
		<path class="st1" d="M156.9,190.9v-6.1h6.3v6.1H156.9z M156.9,230.8V197h6.3v33.7H156.9z"/>
		<path class="st1" d="M175.7,230.8V197h6.3v6.3c3-4.7,7-7.1,11.7-7.1c4.6,0,7.7,2.4,9.4,7.1c3-4.7,6.8-7.1,11.6-7.1
			c3,0,5.4,0.9,7.1,2.6s2.5,4.2,2.5,7.3v24.5H218v-23.5c0-3.8-1.6-5.8-4.7-5.8c-3.2,0-6.6,2.2-10.2,6.7v22.6h-6.3v-23.6
			c0-3.9-1.6-5.8-4.8-5.8c-3.2,0-6.5,2.3-10.1,6.8v22.6H175.7z"/>
		<path class="st1" d="M254.2,226.5c-3.7,3.4-7.4,5.1-10.8,5.1c-2.9,0-5.2-0.9-7.1-2.6c-1.9-1.7-2.8-4-2.8-6.6
			c0-3.7,1.6-6.5,4.7-8.5c3.2-2,7.7-3,13.6-3h1.5v-4.1c0-3.9-2.1-5.9-6.3-5.9c-3.2,0-6.8,1-10.6,3v-5.1c4.2-1.7,8.2-2.5,11.9-2.5
			c3.8,0,6.7,0.9,8.5,2.6c1.8,1.7,2.7,4.3,2.7,7.9V222c0,3.5,1.1,5.2,3.3,5.2c0.3,0,0.7,0,1.2-0.1l0.4,3.4c-1.4,0.7-3,1-4.7,1
			C256.9,231.5,255,229.8,254.2,226.5z M253.3,223.1v-8.7l-2-0.1c-3.5,0-6.3,0.6-8.4,1.9c-2.1,1.3-3.2,2.9-3.2,5
			c0,1.5,0.5,2.7,1.6,3.7c1.1,1,2.3,1.5,3.9,1.5C247.8,226.5,250.5,225.4,253.3,223.1z"/>
		<path class="st1" d="M287.7,230.8c-1.9,0.5-3.6,0.8-5,0.8c-3.2,0-5.7-0.9-7.4-2.7c-1.8-1.8-2.7-4.3-2.7-7.4v-19.8h-4.3V197h4.3
			v-6.1l6.3-0.6v6.7h9v4.6h-9v18.7c0,4.4,1.9,6.6,5.8,6.6c0.8,0,1.8-0.1,3-0.4V230.8z"/>
		<path class="st1" d="M321.9,229.7c-4.2,1.2-7.8,1.9-10.8,1.9c-5.1,0-9.2-1.6-12.4-4.9c-3.2-3.3-4.8-7.6-4.8-12.8
			c0-5.1,1.4-9.3,4.2-12.6c2.8-3.3,6.4-4.9,10.8-4.9c4.2,0,7.4,1.5,9.7,4.4c2.3,2.9,3.4,7,3.4,12.4l0,1.9h-21.7c0.9,8,4.9,12,12,12
			c2.6,0,5.8-0.7,9.6-2.1V229.7z M300.6,210.3h15.2c0-6.3-2.4-9.4-7.2-9.4C303.8,200.9,301.1,204,300.6,210.3z"/>
		<path class="st1" d="M103.4,307c-1.9,0.5-3.6,0.8-5,0.8c-3.2,0-5.7-0.9-7.4-2.7c-1.8-1.8-2.7-4.3-2.7-7.4v-19.8h-4.3v-4.6h4.3
			v-6.1l6.3-0.6v6.7h9v4.6h-9v18.7c0,4.4,1.9,6.6,5.8,6.6c0.8,0,1.8-0.1,3-0.4V307z"/>
		<path class="st1" d="M137.6,306c-4.2,1.2-7.8,1.9-10.8,1.9c-5.1,0-9.2-1.6-12.4-4.9c-3.2-3.3-4.8-7.6-4.8-12.8
			c0-5.1,1.4-9.3,4.2-12.6c2.8-3.3,6.4-4.9,10.8-4.9c4.2,0,7.4,1.5,9.7,4.4s3.4,7,3.4,12.4l0,1.9H116c0.9,8,4.9,12,12,12
			c2.6,0,5.8-0.7,9.6-2.1V306z M116.3,286.6h15.2c0-6.3-2.4-9.4-7.2-9.4C119.5,277.2,116.8,280.3,116.3,286.6z"/>
		<path class="st1" d="M148.5,307v-33.7h6.3v6.3c2.5-4.7,6.1-7.1,10.8-7.1c0.6,0,1.3,0.1,2,0.2v5.7c-1.1-0.4-2-0.5-2.9-0.5
			c-4,0-7.3,2.3-9.9,6.9V307H148.5z"/>
		<path class="st1" d="M175.2,307v-33.7h6.3v6.3c3-4.7,7-7.1,11.7-7.1c4.6,0,7.7,2.4,9.4,7.1c3-4.7,6.8-7.1,11.6-7.1
			c3,0,5.4,0.9,7.1,2.6c1.7,1.7,2.5,4.2,2.5,7.3V307h-6.3v-23.5c0-3.8-1.6-5.8-4.7-5.8c-3.2,0-6.6,2.2-10.2,6.7V307h-6.3v-23.6
			c0-3.9-1.6-5.8-4.8-5.8c-3.2,0-6.5,2.3-10.1,6.8V307H175.2z"/>
		<path class="st1" d="M235.9,267.2v-6.1h6.3v6.1H235.9z M235.9,307v-33.7h6.3V307H235.9z"/>
		<path class="st1" d="M254.6,307v-33.7h6.3v6.3c3.3-4.7,7.3-7.1,12.1-7.1c3,0,5.4,0.9,7.2,2.8c1.8,1.9,2.7,4.3,2.7,7.5V307h-6.3
			v-22.2c0-2.5-0.4-4.3-1.1-5.4c-0.8-1.1-2-1.6-3.7-1.6c-3.8,0-7.4,2.5-10.8,7.4V307H254.6z"/>
		<path class="st1" d="M312.8,302.8c-3.7,3.4-7.4,5.1-10.8,5.1c-2.9,0-5.2-0.9-7.1-2.6c-1.9-1.7-2.8-4-2.8-6.6
			c0-3.7,1.6-6.5,4.7-8.5c3.2-2,7.7-3,13.6-3h1.5V283c0-3.9-2.1-5.9-6.3-5.9c-3.2,0-6.8,1-10.6,3v-5.1c4.2-1.7,8.2-2.5,11.9-2.5
			c3.8,0,6.7,0.9,8.5,2.6c1.8,1.7,2.7,4.3,2.7,7.9v15.3c0,3.5,1.1,5.2,3.3,5.2c0.3,0,0.7,0,1.2-0.1l0.4,3.4c-1.4,0.7-3,1-4.7,1
			C315.4,307.8,313.6,306.1,312.8,302.8z M311.9,299.4v-8.7l-2-0.1c-3.5,0-6.3,0.6-8.4,1.9c-2.1,1.3-3.2,2.9-3.2,5
			c0,1.5,0.5,2.7,1.6,3.7c1.1,1,2.3,1.5,3.9,1.5C306.3,302.8,309,301.7,311.9,299.4z"/>
		<path class="st1" d="M330.9,307v-49h6.3v49H330.9z"/>
	</g>
	<g>
		<path class="st1" d="M212.6,90.2l-38.4,22.2v44.4l38.4,22.2l38.4-22.2v-44.4L212.6,90.2z M243.2,113.9l-30.6,17.7L182,113.9
			l30.6-17.7L243.2,113.9z M179.4,118.4l30.6,17.7v35.4l-30.6-17.7V118.4z M215.2,171.4v-35.4l30.6-17.7v35.4L215.2,171.4z
			 M215.2,171.4"/>
	</g>
</g>
</svg>
